<?xml version="1.0" encoding="UTF-8"?>
<svg version="1.1" xmlns="http://www.w3.org/2000/svg" width="512" height="512">
<path d="M0 0 C0.83917969 0.75796875 1.67835938 1.5159375 2.54296875 2.296875 C24.59515967 23.22081429 34.46022265 51.1487887 35.65917969 81.03491211 C35.73423524 85.15013172 35.73423524 85.15013172 37 89 C39.56855347 89.55038129 39.56855347 89.55038129 42.6875 89.875 C62.3579927 92.69121262 78.33383862 100.25931916 91.12890625 115.54296875 C102.99501695 131.66345175 106.01454262 149.91995714 103.56640625 169.4609375 C99.64281384 187.64106135 88.32952317 201.97607137 73 212 C56.59925968 222.32639205 37.98736222 221.59054871 19.33825397 221.52289867 C15.60265076 221.51375713 11.86711919 221.52786248 8.13153076 221.53881836 C0.83439715 221.55651215 -6.46257096 221.55280469 -13.75971079 221.5411678 C-19.69551344 221.53209749 -25.63127003 221.53092494 -31.56707764 221.53526306 C-32.83911342 221.53618246 -32.83911342 221.53618246 -34.1368469 221.53712043 C-35.86012667 221.53839946 -37.58340642 221.53969632 -39.30668616 221.5410108 C-55.4281682 221.55238981 -71.54955893 221.53934508 -87.67102599 221.51780933 C-101.47408905 221.49994079 -115.2770175 221.50304565 -129.08007812 221.52148438 C-145.14779433 221.54293858 -161.21543072 221.55129143 -177.28315926 221.53903532 C-178.99974695 221.53776126 -180.71633465 221.53650377 -182.43292236 221.53526306 C-183.27729713 221.53464596 -184.12167189 221.53402886 -184.99163377 221.53339306 C-190.91344852 221.52995378 -196.83521221 221.53573765 -202.75701904 221.54518127 C-209.98357203 221.55645338 -217.20995146 221.55325256 -224.43648481 221.5320583 C-228.11655943 221.5216174 -231.79634571 221.51730537 -235.47641754 221.53065491 C-259.89340379 221.61165748 -281.53668367 220.03322244 -300 202 C-313.3389849 186.56946226 -319.4318099 169.38190756 -318.17578125 149.07910156 C-316.91692615 134.18964315 -310.081132 120.88001416 -300 110 C-299.35804688 109.30390625 -298.71609375 108.6078125 -298.0546875 107.890625 C-288.50908043 98.52649335 -271.64531041 90 -258 90 C-258.01571045 89.38592285 -258.0314209 88.7718457 -258.04760742 88.13916016 C-258.11076194 85.30120411 -258.14924177 82.46339667 -258.1875 79.625 C-258.21263672 78.65949219 -258.23777344 77.69398438 -258.26367188 76.69921875 C-258.38271457 64.87431088 -254.97555352 54.65115216 -246.99609375 45.76953125 C-237.35189745 36.57390222 -226.7527213 33.59971257 -213.70703125 33.72265625 C-202.53763481 34.55830129 -194.36129153 39.41720505 -186.75 47.3125 C-183.81839742 50.34005597 -183.81839742 50.34005597 -180 51 C-176.02223225 48.12342219 -174.81790363 44.51062676 -173.1875 40 C-163.19342538 13.72895163 -143.31626502 -6.39733924 -118.0234375 -18.24609375 C-108.41144783 -22.54472448 -98.45618943 -25.61959259 -88 -27 C-87.20207031 -27.12246094 -86.40414062 -27.24492187 -85.58203125 -27.37109375 C-54.82465239 -31.2336483 -22.79679224 -20.84683334 0 0 Z " fill="#1E5782" transform="translate(381,220)"/>
<path d="M0 0 C22.97121692 -0.5091404 44.35672001 7.1312902 61.046875 22.98828125 C62.13548828 24.04402344 62.13548828 24.04402344 63.24609375 25.12109375 C63.85839844 25.65992188 64.47070312 26.19875 65.1015625 26.75390625 C74.69253609 35.48893483 81.83546119 48.67969934 85.24609375 61.12109375 C85.1953125 63.828125 85.1953125 63.828125 84.24609375 66.12109375 C82.1640625 67.97265625 82.1640625 67.97265625 79.43359375 69.74609375 C61.60093095 82.11130366 46.85065594 99.59271602 39.24609375 120.12109375 C35.82638803 119.47940984 33.4658627 118.12809394 30.55859375 116.24609375 C18.56705867 108.87076908 4.79846845 107.1967743 -8.94140625 110.24609375 C-23.08710099 114.30382292 -34.03611403 122.89288626 -41.19018555 135.72509766 C-44.0820138 141.288223 -45.67287094 146.97270544 -46.75390625 153.12109375 C-58.45051697 149.44989476 -67.30201331 135.50129844 -72.75390625 125.12109375 C-82.83065241 104.65001168 -85.16065893 81.19421692 -78.49902344 59.26757812 C-76.2820924 52.88118963 -73.14060045 46.95401926 -69.75390625 41.12109375 C-68.99400391 39.81205078 -68.99400391 39.81205078 -68.21875 38.4765625 C-56.1794402 19.32768814 -36.82025634 6.95856652 -15.08203125 1.796875 C-10.0020913 0.76538485 -5.16955794 0.2273139 0 0 Z " fill="#2979BC" transform="translate(159.75390625,134.87890625)"/>
<path d="M0 0 C6.44330605 2.82876851 10.92399447 8.69973429 15.4375 13.9375 C18.10547394 17.02157997 20.85039022 20.00767422 23.6875 22.9375 C24.77611328 24.06478516 24.77611328 24.06478516 25.88671875 25.21484375 C28.11449465 27.09671729 29.1776965 27.54706049 32 28 C34.7951356 27.38479919 37.46001078 26.69154474 40.1953125 25.875 C40.98396698 25.64925293 41.77262146 25.42350586 42.58517456 25.19091797 C45.10124465 24.46991423 47.61332475 23.73615582 50.125 23 C52.64404934 22.26477737 55.16378524 21.53250884 57.68624878 20.80908203 C59.2553089 20.35885672 60.82239295 19.90167705 62.38723755 19.43701172 C67.7751777 17.88758885 67.7751777 17.88758885 70 19 C70.78281297 21.62382031 71.44788342 24.20243698 72.05859375 26.8671875 C72.44847718 28.49090716 72.83845407 30.11460437 73.22851562 31.73828125 C73.83504132 34.30735605 74.43801847 36.87722009 75.03833008 39.44775391 C75.61946876 41.92312401 76.21346322 44.39515034 76.80859375 46.8671875 C76.9836998 47.63602264 77.15880585 48.40485779 77.33921814 49.19699097 C78.00240783 51.9387088 78.66332051 54.45016677 80.14453125 56.86914062 C83.16232896 58.70840892 86.47754659 59.41149247 89.87890625 60.2265625 C90.64677963 60.41971039 91.41465302 60.61285828 92.20579529 60.81185913 C94.65568166 61.42616355 97.1088167 62.02605997 99.5625 62.625 C102.01896932 63.23389514 104.47467937 63.84571984 106.92991638 64.45956421 C108.45709119 64.84037275 109.98511964 65.21777711 111.51405334 65.59146118 C116.78180148 66.89090074 116.78180148 66.89090074 119 68 C117.63217409 75.65725842 115.65212672 83.04789523 113.4375 90.5 C113.12103516 91.5828125 112.80457031 92.665625 112.47851562 93.78125 C110.1437595 101.712481 110.1437595 101.712481 109 104 C106.32170239 105.12250041 103.66865055 106.15008887 100.9375 107.125 C100.17888672 107.40214844 99.42027344 107.67929688 98.63867188 107.96484375 C96.76143432 108.64962223 94.88100446 109.32563763 93 110 C92.6596875 109.07960938 92.319375 108.15921875 91.96875 107.2109375 C82.27656912 81.61635007 66.71848064 62.47087217 42 50 C17.85322011 39.12654206 -8.09082184 38.150629 -32.95898438 47.2109375 C-57.89026581 56.84944248 -75.89464251 74.62853793 -86.8125 99.0625 C-96.83157234 122.2952119 -96.6687465 148.55494339 -87.60375977 172.0625 C-80.88619729 188.37858374 -70.41393019 200.56086468 -57.19140625 212.0625 C-55.03935325 213.9652064 -53.01000788 215.94878467 -51 218 C-51.90621094 218.31453125 -52.81242187 218.6290625 -53.74609375 218.953125 C-60.63500792 221.37335728 -67.37481787 223.91586349 -74 227 C-74.19335938 226.38511719 -74.38671875 225.77023437 -74.5859375 225.13671875 C-74.84632812 224.32847656 -75.10671875 223.52023437 -75.375 222.6875 C-75.63023438 221.88699219 -75.88546875 221.08648437 -76.1484375 220.26171875 C-76.98831811 217.77275472 -76.98831811 217.77275472 -79 215 C-81.84694035 214.0356172 -84.59873123 213.23983321 -87.5078125 212.51953125 C-88.34843231 212.30181564 -89.18905212 212.08410004 -90.05514526 211.85978699 C-92.74243557 211.16645929 -95.43351251 210.48933065 -98.125 209.8125 C-99.94688677 209.34546154 -101.76850533 208.87737545 -103.58984375 208.40820312 C-108.05687359 207.2599528 -112.52736596 206.12621418 -117 205 C-115.4169079 196.11972589 -112.94941206 187.56676454 -110.390625 178.92578125 C-110.08382812 177.86230469 -109.77703125 176.79882812 -109.4609375 175.703125 C-109.04013916 174.27468262 -109.04013916 174.27468262 -108.61083984 172.81738281 C-107.91855441 169.62434767 -107.55289258 167.25322871 -108 164 C-109.6625174 161.7998807 -111.16830957 160.10391734 -113.14453125 158.234375 C-113.67012131 157.71490295 -114.19571136 157.19543091 -114.73722839 156.66021729 C-116.41540905 155.00890977 -118.11353651 153.37988819 -119.8125 151.75 C-120.94467374 150.6393591 -122.07554875 149.52739263 -123.20507812 148.4140625 C-128.78402969 142.8279947 -128.78402969 142.8279947 -135 138 C-134.58518751 133.54342479 -131.4892312 131.11734662 -128.4375 128.1875 C-127.89464355 127.65560059 -127.35178711 127.12370117 -126.79248047 126.57568359 C-123.80877174 123.67330855 -120.76912556 120.85397889 -117.625 118.125 C-117.01011719 117.58746094 -116.39523438 117.04992187 -115.76171875 116.49609375 C-114.58402339 115.49596665 -113.37714807 114.52925507 -112.14453125 113.59765625 C-110.37869447 112.13892152 -109.21184856 110.94361145 -108 109 C-107.33287252 100.80558478 -110.73779632 92.27537699 -113.0625 84.5625 C-113.80864658 82.06530308 -114.54786802 79.56625332 -115.28515625 77.06640625 C-115.61394775 75.97271729 -115.94273926 74.87902832 -116.28149414 73.75219727 C-117 71 -117 71 -117 68 C-107.51565063 65.33713011 -98.02206562 62.71260259 -88.5 60.1875 C-87.68168701 59.96876221 -86.86337402 59.75002441 -86.02026367 59.5246582 C-80.23637921 58 -80.23637921 58 -78 58 C-77.67128906 56.66775391 -77.67128906 56.66775391 -77.3359375 55.30859375 C-76.45395841 51.75558041 -75.56356795 48.20486965 -74.66796875 44.65527344 C-74.19399651 42.77116449 -73.72294015 40.88632094 -73.25390625 39.00097656 C-72.46903841 35.85271937 -71.67293662 32.70746749 -70.875 29.5625 C-70.62153809 28.53761475 -70.36807617 27.51272949 -70.10693359 26.45678711 C-69.86281738 25.50296143 -69.61870117 24.54913574 -69.3671875 23.56640625 C-69.15175293 22.70990479 -68.93631836 21.85340332 -68.71435547 20.97094727 C-68 19 -68 19 -66 18 C-63.32799703 18.64716853 -60.73392411 19.36561771 -58.10546875 20.16015625 C-56.49428129 20.62873914 -54.88294846 21.09682242 -53.27148438 21.56445312 C-50.72843106 22.31113895 -48.18704663 23.06263587 -45.64819336 23.82348633 C-43.20031253 24.55387357 -40.74733939 25.26443497 -38.29296875 25.97265625 C-37.15990547 26.32095238 -37.15990547 26.32095238 -36.00395203 26.67628479 C-32.73221707 27.60928274 -30.46320762 28.11989507 -27.13354492 27.25805664 C-24.3670517 25.62677851 -22.35949336 23.68088293 -20.125 21.375 C-19.25359375 20.4778125 -18.3821875 19.580625 -17.484375 18.65625 C-14.82816366 15.81627562 -12.26503035 12.91584695 -9.73828125 9.9609375 C-6.65460207 6.4822702 -3.32448972 3.24677437 0 0 Z " fill="#1E5782" transform="translate(162,84)"/>
</svg>
