<?xml version="1.0" encoding="UTF-8"?>
<svg version="1.1" xmlns="http://www.w3.org/2000/svg" width="512" height="512">
<path d="M0 0 C14.20111497 -0.28236135 28.89726956 1.06552707 42.77734375 4.12109375 C42.77734375 7.12109375 42.77734375 7.12109375 41.2734375 8.77734375 C40.59410156 9.38578125 39.91476562 9.99421875 39.21484375 10.62109375 C28.581391 20.91578164 22.80607828 34.28671509 22.48486328 49.01196289 C22.35038026 66.53903685 27.1236662 80.92089219 39.36328125 93.8359375 C51.37464564 105.20591836 65.46273985 110.40003134 81.79516602 110.43994141 C82.75233017 110.44998703 83.70949432 110.46003265 84.69566345 110.47038269 C87.82835341 110.50103004 90.96095864 110.51819823 94.09375 110.53515625 C96.27807841 110.55388275 98.46239969 110.57345726 100.64671326 110.59384155 C106.37256661 110.6450121 112.09844338 110.68471833 117.82440186 110.72198486 C123.67661255 110.7621193 129.52872712 110.81316846 135.38085938 110.86328125 C146.84628648 110.95986192 158.31176807 111.04432356 169.77734375 111.12109375 C170.58200459 113.0269513 171.38407393 114.93390312 172.18505859 116.84130859 C172.63199066 117.90312347 173.07892273 118.96493835 173.53939819 120.05892944 C175.09186881 123.89909841 176.32955608 127.74935119 177.40234375 131.74609375 C177.60762695 132.50043701 177.81291016 133.25478027 178.02441406 134.03198242 C190.14332505 180.1267852 183.29739916 230.01256768 159.43359375 271.24609375 C148.09067604 290.21070792 133.42427184 307.75764966 115.77734375 321.12109375 C114.41609375 322.20583984 114.41609375 322.20583984 113.02734375 323.3125 C76.02935508 352.21717865 30.03176614 363.00452352 -16.22265625 359.12109375 C-16.06410156 358.16460937 -15.90554687 357.208125 -15.7421875 356.22265625 C-13.29237996 338.89559831 -15.47901552 322.94206588 -25.22265625 308.12109375 C-26.22069199 307.03715113 -27.2405995 305.97278003 -28.28515625 304.93359375 C-31.41484204 301.56003633 -32.4769102 297.70297203 -33.72265625 293.37109375 C-38.2665821 277.61990063 -46.91570946 265.52937432 -61.22265625 257.12109375 C-75.50649166 249.52459854 -91.1474775 247.57847222 -106.84765625 251.87109375 C-110.55582176 253.05635213 -113.78130842 254.35244725 -117.09765625 256.37109375 C-121.50236265 258.8139609 -126.1339852 258.26966152 -131.00488281 258.11865234 C-139.86228031 257.91444127 -147.89463899 260.27918875 -156.22265625 263.12109375 C-178.14892919 219.65810094 -182.24145849 170.03934497 -167.50390625 123.51171875 C-151.94624202 77.22664681 -118.60952031 39.82396621 -75.08203125 18.05029297 C-51.50306393 6.56296784 -26.13423991 0.98201386 0 0 Z " fill="#3A4550" transform="translate(252.22265625,75.87890625)"/>
<path d="M0 0 C9.17699432 6.87899083 14.91277593 16.6563198 17.38671875 27.7890625 C17.47132933 29.1639845 17.55462475 30.53898795 17.63671875 31.9140625 C18.45849058 36.15988362 19.25449168 36.83974643 22.6328125 39.265625 C30.17155339 45.81375183 33.96237507 55.92594773 34.6640625 65.62109375 C35.14851946 79.45103062 31.98271168 90.42086282 22.50390625 100.86328125 C13.08344907 109.65443664 2.12600044 113.09228846 -10.48901367 113.07958984 C-11.93929962 113.08966568 -11.93929962 113.08966568 -13.41888428 113.09994507 C-16.60222576 113.11887785 -19.78535578 113.1228472 -22.96875 113.125 C-25.19444361 113.13143225 -27.42013638 113.13816093 -29.64582825 113.14517212 C-34.30858315 113.15713387 -38.97126404 113.16085418 -43.6340332 113.15966797 C-49.58425154 113.15946509 -55.53399061 113.18674049 -61.48409557 113.22121239 C-66.08173261 113.24354521 -70.67925559 113.24750352 -75.2769413 113.24644852 C-77.46920736 113.24879589 -79.66147698 113.25757028 -81.85368919 113.27311325 C-99.07381498 113.38375466 -112.41120265 112.11597871 -125.61328125 99.9453125 C-135.07404309 89.99520091 -137.10511394 78.55057664 -136.890625 65.3515625 C-136.43391985 54.2815751 -130.86444474 44.5240219 -122.86328125 37.0390625 C-116.58233173 31.8749931 -109.7816003 28.32177896 -101.61328125 27.7890625 C-101.57203125 26.9846875 -101.53078125 26.1803125 -101.48828125 25.3515625 C-99.38312512 16.78056967 -92.87431115 9.58285721 -85.61328125 4.7890625 C-76.81079265 0.91684013 -68.42673734 -0.80919949 -59.23828125 2.2265625 C-56.05066753 3.03734927 -54.92250469 2.94053717 -51.91796875 1.46875 C-50.02280944 0.20707013 -48.14274881 -1.07754285 -46.27734375 -2.3828125 C-32.70261297 -11.69802365 -13.15724172 -8.38593428 0 0 Z " fill="#2A78C2" transform="translate(426.61328125,58.2109375)"/>
<path d="M0 0 C9.4137165 6.21977698 15.24258655 13.82814482 19.25 24.421875 C19.87350904 27.83039107 20.29376449 31.15366143 20.53515625 34.609375 C21.48252689 38.33673491 23.17282437 39.22002499 26.25 41.421875 C35.21454905 51.7096735 38.18830507 62.99683534 37.6328125 76.36328125 C36.80587703 87.55811519 31.05475347 97.03641856 23.0625 104.671875 C16.32688372 110.39144069 7.87577762 114.51751037 -1.067276 114.56904602 C-1.92353577 114.57620132 -2.77979553 114.58335663 -3.66200256 114.59072876 C-5.05919777 114.59476212 -5.05919777 114.59476212 -6.48461914 114.59887695 C-7.47215179 114.60544815 -8.45968445 114.61201935 -9.47714233 114.61878967 C-12.74648111 114.63850406 -16.01577393 114.65018302 -19.28515625 114.66015625 C-20.96359021 114.66626954 -20.96359021 114.66626954 -22.67593193 114.67250633 C-28.60190521 114.69336211 -34.52785539 114.70766431 -40.45385742 114.71704102 C-46.55780561 114.72808641 -52.66138736 114.76246652 -58.76520634 114.80221272 C-63.47259675 114.82843387 -68.1799007 114.8367379 -72.88735771 114.84032249 C-75.13628035 114.84517653 -77.38519944 114.85675653 -79.63405037 114.87536049 C-82.79286315 114.89986176 -85.95073928 114.8987663 -89.10961914 114.8918457 C-90.02691299 114.90465576 -90.94420685 114.91746582 -91.88929749 114.93066406 C-103.40254404 114.83940149 -113.51767343 110.19213034 -121.91015625 102.421875 C-131.57987906 92.30029599 -134.27252228 81.39845608 -134.01953125 67.8203125 C-133.51669049 56.28222263 -128.13765703 46.37626072 -119.734375 38.54296875 C-113.34741732 33.52644097 -106.88551619 30.09983468 -98.75 29.421875 C-98.70875 28.6175 -98.6675 27.813125 -98.625 26.984375 C-96.39550189 17.90713269 -89.45814859 10.93211965 -81.66015625 6.13671875 C-73.52609726 2.03291683 -65.1095439 1.80457607 -56.3125 3.609375 C-51.95394383 4.58453177 -51.95394383 4.58453177 -48 2.796875 C-47.2575 2.013125 -46.515 1.229375 -45.75 0.421875 C-43.9296875 -0.671875 -43.9296875 -0.671875 -41.875 -1.703125 C-41.25882812 -2.01507813 -40.64265625 -2.32703125 -40.0078125 -2.6484375 C-26.89664823 -8.0471522 -12.23730313 -7.02254328 0 0 Z " fill="#2A78C2" transform="translate(184.75,346.578125)"/>
<path d="M0 0 C3.07783977 2.52311283 5.82392033 5.31751468 8.015625 8.65234375 C8.015625 9.31234375 8.015625 9.97234375 8.015625 10.65234375 C6.30632812 11.23628906 6.30632812 11.23628906 4.5625 11.83203125 C-19.23864219 20.15899853 -40.99736482 31.91949917 -59.984375 48.65234375 C-60.94472656 49.49152344 -61.90507813 50.33070312 -62.89453125 51.1953125 C-81.94854778 68.10031015 -95.44013097 87.65080612 -107.984375 109.65234375 C-119.1186117 106.88852613 -126.82715334 100.2160283 -132.984375 90.65234375 C-138.60871425 80.15585652 -139.69115892 68.09372687 -137.3359375 56.4453125 C-133.41181735 44.72326127 -125.82459626 35.61254857 -114.984375 29.83984375 C-110.91548878 27.89872372 -107.46970625 26.94486535 -102.984375 26.65234375 C-102.943125 25.84796875 -102.901875 25.04359375 -102.859375 24.21484375 C-100.82754913 15.94240986 -94.8504925 9.458626 -87.984375 4.65234375 C-80.54144958 0.55749013 -73.45501888 -1.04197132 -64.984375 -0.34765625 C-63.52098495 0.1158374 -62.06248327 0.59505778 -60.609375 1.08984375 C-57.43240474 1.89651794 -56.30958239 1.81375359 -53.32421875 0.33203125 C-51.44192432 -0.93342127 -49.57236417 -2.21798591 -47.71484375 -3.51953125 C-33.35669575 -13.13271189 -13.32955633 -9.42179071 0 0 Z " fill="#2A78C2" transform="translate(188.984375,59.34765625)"/>
</svg>
