<svg xmlns="http://www.w3.org/2000/svg" enable-background="new 0 0 70 70" viewBox="0 0 70 70" id="startup">
  <path fill="#2B79C2" d="M67.9893341,3.102416c0.0299683-0.2999878-0.0700073-0.5999756-0.2900391-0.8099976
		c-0.2099609-0.210022-0.5-0.3200073-0.7999878-0.289978c-0.9299927,0.0999756-22.789978,2.4199829-38.3399658,17.9699707
		c-1.4800415,1.4800415-2.8600464,3-4.1500244,4.5200195c-5.8499756-2.8300171-13.6099854-0.8400269-18.4000244,4.8699951
		c-0.3099976,0.3800049-3.1199951,3.7399921-3.9400024,5.8900166c-0.1499635,0.3999634-0.0299683,0.8499756,0.3000488,1.1300049
		c0.1799927,0.1499634,0.4099731,0.2199707,0.6399536,0.2199707c0.1799927,0,0.3600464-0.039978,0.5200195-0.1499634
		c4.3200073-2.6700439,9.3300171-2.8900146,13.039978-0.6400146c-0.8299561,1.5800171-1.539978,3.1300049-2.1099854,4.6400146
		l15.0900269,15.0899658c1.5199585-0.5599976,3.0700054-1.2700195,4.6399517-2.1099854
		c2.2600098,3.710022,2.0300293,8.7299805-0.6399536,13.039978c-0.2300415,0.3699951-0.1900024,0.8400269,0.0799561,1.1700439
		c0.1900024,0.2299805,0.4800415,0.3599854,0.7700195,0.3599854c0.1199951,0,0.2399902-0.0200195,0.3599854-0.0700073
		c1.0200195-0.4000244,2.3400269-1.25,3.4700317-2.0700073c1.1400146-0.8200073,2.0899658-1.6099854,2.4099731-1.8699951
		c5.710022-4.789978,7.7000122-12.5499878,4.8699951-18.3900146c1.5100098-1.289978,3.0300293-2.6799927,4.5100098-4.1699829
		C65.5692902,25.8924541,67.8993073,4.0223989,67.9893341,3.102416z M48.9693146,13.2324209
		c2.1500244-2.1500244,5.6500244-2.1500244,7.7999878,0c2.1500244,2.1500244,2.1500244,5.6400137,0,7.7899771
		c-1.0800171,1.0700073-2.4899902,1.6100464-3.8999634,1.6100464c-1.4100342,0-2.8200073-0.5400391-3.9000244-1.6100464
		C46.8292999,18.8724346,46.8292999,15.3824453,48.9693146,13.2324209z"></path>
  <path fill="#3B4652" d="M13.4693165,42.2924194l-2.3499756,2.3400269c-0.3900146,0.3899536-0.3900146,1.0199585,0,1.4099731
		l1.1141357,1.1141357c-0.2411499,0.1870728-0.4771118,0.3788452-0.6841431,0.5858765
		c-2.6700439,2.6699829-6.1500244,14.6599731-6.5400391,16.0200195c-0.0999756,0.3499756,0,0.7199707,0.2600098,0.9799805
		c0.1900024,0.1900024,0.4400024,0.289978,0.7000122,0.289978c0.0999756,0,0.1900024-0.0100098,0.2800293-0.039978
		c1.3599854-0.3800049,13.3399658-3.8599854,16.0199585-6.539978c0.2060547-0.2019653,0.3965454-0.4375,0.5820923-0.6779785
		l0.0079346,0.0079346l1.0999756,1.1000366c0.2000122,0.1999512,0.4500122,0.2999878,0.710022,0.2999878
		c0.25,0,0.5100098-0.1000366,0.7000122-0.2999878l2.3499756-2.3400269L13.4693165,42.2924194z"></path>
</svg>