<?xml version="1.0" encoding="utf-8"?>
<!DOCTYPE svg PUBLIC "-//W3C//DTD SVG 20010904//EN" "http://www.w3.org/TR/2001/REC-SVG-20010904/DTD/svg10.dtd">
<svg version="1.0" xmlns="http://www.w3.org/2000/svg" width="514pt" height="514pt" viewBox="0 0 514 514" style="" preserveAspectRatio="xMidYMid meet">
<g fill="#0C2C48FE">
<path d="M 5.048 148.155 L 5.095 204.500 151.212 288.736 C 263.603 353.530 297.634 372.719 298.654 371.872 C 299.712 370.994 300.032 361.665 300.240 325.683 L 300.500 280.595 311.000 274.455 C 366.560 241.966 391.168 228.127 392.481 228.631 C 393.788 229.133 394.000 227.524 394.000 217.107 C 394.000 210.448 393.805 205.000 393.567 205.000 C 393.329 205.000 371.635 217.405 345.359 232.566 C 303.390 256.781 297.307 260.005 295.309 259.095 C 293.653 258.340 100.213 146.881 9.250 94.268 L 5.000 91.810 5.048 148.155 "/></g>
<g fill="#084E76FE">
<path d="M 53.750 63.751 C 27.488 78.957 6.012 91.646 6.027 91.949 C 6.072 92.888 295.238 259.373 296.935 259.439 C 299.147 259.523 394.126 204.715 393.226 203.874 C 391.954 202.685 102.862 35.998 102.167 36.052 C 101.800 36.081 80.013 48.545 53.750 63.751 "/></g>
<g fill="#064CB2FE">
<path d="M 300.770 326.203 C 300.621 351.116 300.725 376.189 301.000 381.920 L 301.500 392.339 309.500 397.125 C 313.900 399.757 317.830 401.931 318.233 401.956 C 318.637 401.980 329.887 408.307 343.233 416.015 L 367.500 430.031 367.789 422.090 L 368.078 414.149 390.575 427.131 C 406.601 436.379 413.636 439.933 415.035 439.489 C 416.902 438.896 417.001 437.856 417.022 418.683 C 417.041 401.267 417.296 397.946 418.880 394.459 C 420.979 389.837 426.219 385.000 429.126 385.000 C 431.366 385.000 436.641 387.488 439.250 389.776 C 441.626 391.858 441.508 398.084 439.000 403.000 C 437.396 406.144 437.000 408.894 437.000 416.890 L 437.000 426.859 441.491 424.349 C 446.708 421.434 447.561 420.429 445.494 419.636 C 444.245 419.157 444.000 416.114 444.000 401.099 C 444.000 384.013 444.098 383.104 446.000 382.500 C 447.100 382.151 448.900 382.151 450.000 382.500 C 451.532 382.986 452.000 382.680 452.000 381.190 C 452.000 378.408 454.529 376.665 457.487 377.407 L 460.000 378.038 460.000 395.519 C 460.000 405.134 460.338 412.993 460.750 412.985 C 461.163 412.976 462.084 412.599 462.797 412.146 C 463.834 411.489 463.783 411.065 462.547 410.039 C 461.257 408.968 461.000 405.798 461.000 390.945 C 461.000 374.127 461.109 373.100 462.962 372.512 C 464.041 372.169 465.841 372.380 466.962 372.980 C 468.766 373.945 469.000 373.776 469.000 371.514 C 469.000 368.255 473.104 366.011 475.470 367.975 C 476.736 369.026 477.000 372.252 477.000 386.679 L 477.000 404.113 479.173 402.592 C 481.090 401.248 481.149 400.994 479.673 400.428 C 478.196 399.861 478.000 397.704 478.000 382.015 C 478.000 363.187 478.513 361.076 482.761 362.424 C 484.304 362.914 484.832 362.180 485.881 358.086 C 488.225 348.943 495.873 343.721 502.066 347.035 C 503.879 348.005 504.000 347.692 504.000 342.035 C 504.000 338.716 503.749 336.000 503.443 336.000 C 503.136 336.000 487.048 345.144 467.693 356.320 C 448.337 367.496 428.354 379.017 423.287 381.922 L 414.075 387.205 413.743 395.853 L 413.411 404.500 413.206 395.863 L 413.000 387.225 403.750 381.961 C 398.663 379.066 391.155 374.902 387.066 372.708 C 382.978 370.514 377.128 367.207 374.066 365.360 L 368.500 362.002 368.205 367.751 L 367.909 373.500 361.955 376.789 L 356.000 380.078 356.000 369.565 L 356.000 359.051 352.929 357.463 C 350.722 356.322 350.139 355.537 350.856 354.673 C 351.592 353.786 347.893 351.244 336.760 344.985 C 328.458 340.318 319.700 335.262 317.298 333.750 L 312.930 331.000 313.040 309.365 L 313.149 287.731 307.094 284.319 L 301.040 280.907 300.770 326.203 M 338.744 356.776 C 339.067 357.616 338.543 358.861 337.566 359.576 C 336.067 360.671 335.079 360.415 330.903 357.845 C 325.814 354.714 324.844 352.746 327.625 351.190 C 329.512 350.134 337.791 354.293 338.744 356.776 "/></g>
<g fill="#425056FE">
<path d="M 5.001 213.250 L 5.003 221.500 11.488 224.997 C 15.523 227.173 17.885 229.060 17.737 229.991 C 17.578 230.998 18.885 231.824 21.732 232.515 C 28.054 234.049 50.167 247.094 48.944 248.567 C 48.243 249.413 48.887 249.958 51.234 250.505 C 53.030 250.924 54.950 251.223 55.500 251.168 C 57.416 250.980 81.500 265.649 81.500 267.004 C 81.500 267.781 83.439 268.877 86.000 269.548 C 88.475 270.196 95.000 273.343 100.500 276.540 C 106.000 279.738 113.003 283.737 116.062 285.427 C 119.122 287.117 132.525 294.795 145.847 302.488 C 165.839 314.033 169.796 316.676 168.505 317.620 C 167.217 318.561 167.727 318.882 171.386 319.431 C 174.384 319.880 181.781 323.495 194.094 330.526 C 212.981 341.313 215.480 342.971 212.950 343.039 C 211.229 343.086 217.660 346.000 219.483 346.000 C 220.553 346.000 278.089 378.497 292.289 387.121 L 297.078 390.030 296.789 381.265 L 296.500 372.500 151.500 288.768 C 71.750 242.715 6.163 205.027 5.750 205.018 C 5.338 205.008 5.001 208.713 5.001 213.250 "/></g>
<g fill="#1088FEFE">
<path d="M 347.500 254.121 C 323.850 267.863 303.874 279.473 303.108 279.922 C 302.100 280.513 303.361 281.702 307.689 284.238 L 313.661 287.739 384.942 277.425 C 424.146 271.752 456.407 266.926 456.633 266.700 C 457.393 265.940 392.488 228.788 390.889 229.068 C 390.675 229.105 371.150 240.379 347.500 254.121 "/></g>
<g fill="#6CBCFEFE">
<path d="M 413.502 293.175 C 388.753 307.468 368.335 319.331 368.129 319.537 C 367.756 319.910 373.129 333.808 377.117 342.784 C 381.299 352.199 381.917 353.669 386.038 364.000 C 388.341 369.775 390.361 374.649 390.527 374.831 C 390.693 375.013 391.857 374.563 393.114 373.831 C 394.371 373.099 394.859 372.613 394.200 372.750 C 393.540 372.887 393.000 372.723 393.000 372.385 C 393.000 372.046 407.596 348.734 425.435 320.580 C 443.274 292.426 458.012 268.895 458.185 268.289 C 458.358 267.683 438.251 278.882 413.502 293.175 "/></g>
<g fill="#9ED8FEFE">
<path d="M 426.000 319.601 C 408.125 347.874 393.500 371.440 393.500 371.970 C 393.500 372.693 478.895 324.274 480.884 322.422 C 481.318 322.018 460.159 269.858 459.151 268.848 C 458.793 268.489 443.875 291.328 426.000 319.601 "/></g>
<g fill="#0466DAFE">
<path d="M 384.500 277.363 C 346.550 282.941 314.938 287.868 314.250 288.311 C 313.303 288.923 313.053 294.254 313.220 310.309 L 313.440 331.500 313.970 310.259 L 314.500 289.017 341.000 304.318 L 367.500 319.618 389.000 307.204 C 400.825 300.377 421.164 288.650 434.198 281.145 C 449.057 272.590 457.077 267.448 455.698 267.361 C 454.489 267.284 422.450 271.785 384.500 277.363 "/></g>
<g fill="#1088FEFE">
<path d="M 314.000 310.361 L 314.000 331.762 333.026 342.593 C 345.220 349.535 351.876 353.881 351.563 354.697 C 350.880 356.477 354.627 358.253 357.288 357.409 C 358.504 357.023 361.179 355.649 363.230 354.354 C 365.282 353.059 367.194 352.000 367.480 352.000 C 367.766 352.000 368.000 354.154 368.000 356.787 L 368.000 361.574 377.931 367.264 C 383.393 370.394 388.301 373.077 388.836 373.227 C 389.372 373.377 384.781 361.366 378.634 346.536 L 367.459 319.571 344.479 306.250 C 331.841 298.924 319.813 292.036 317.750 290.944 L 314.000 288.959 314.000 310.361 "/></g>
<g fill="#0466DAFE">
<path d="M 470.398 341.514 L 438.296 347.796 415.196 361.146 C 400.635 369.561 392.447 374.847 393.044 375.444 C 393.566 375.966 398.378 378.911 403.739 381.989 L 413.485 387.586 437.992 373.473 C 496.200 339.954 503.831 335.493 503.184 335.366 C 502.808 335.292 488.054 338.059 470.398 341.514 "/></g>
<g fill="#96AAA8FE">
<path d="M 464.000 412.198 C 442.275 424.776 422.138 436.405 419.250 438.042 L 414.000 441.017 414.000 448.592 C 414.000 452.758 414.361 456.017 414.803 455.833 C 415.245 455.650 428.674 447.963 444.645 438.750 C 461.752 428.882 474.746 422.000 476.270 422.000 C 478.762 422.000 482.000 419.751 482.000 418.021 C 482.000 417.561 486.960 414.331 493.021 410.842 L 504.042 404.500 503.771 396.915 L 503.500 389.330 464.000 412.198 "/></g>
<g fill="#060606FE">
<path d="M 11.000 234.480 C 8.888 236.749 8.502 238.125 8.516 243.344 C 8.535 250.961 12.078 258.838 18.281 265.056 C 22.161 268.945 22.526 269.109 22.826 267.096 C 23.037 265.675 22.247 264.196 20.575 262.880 C 16.683 259.819 13.001 252.805 12.336 247.186 C 11.802 242.680 12.012 241.897 14.399 239.511 C 16.511 237.398 17.649 236.984 19.950 237.489 C 22.432 238.034 22.898 237.796 23.219 235.812 C 23.569 233.652 23.911 233.822 28.414 238.389 C 36.244 246.333 40.080 257.840 37.718 266.302 C 37.013 268.828 37.120 269.006 38.805 268.104 C 40.435 267.232 40.953 267.771 42.840 272.302 C 44.978 277.437 52.290 287.000 54.078 287.000 C 56.084 287.000 54.833 283.216 51.908 280.437 C 41.313 270.371 42.090 253.437 53.016 256.294 C 54.482 256.677 55.000 256.315 55.000 254.906 C 55.000 252.006 56.608 252.594 60.971 257.089 C 69.054 265.419 72.806 278.270 69.184 285.221 L 67.245 288.942 69.345 287.471 C 70.500 286.662 71.762 286.000 72.149 286.000 C 72.537 286.000 73.971 288.441 75.337 291.425 C 77.656 296.491 85.287 306.000 87.034 306.000 C 88.665 306.000 86.601 301.355 83.478 298.000 C 78.821 292.997 76.671 288.217 76.580 282.663 C 76.482 276.716 79.477 273.507 84.164 274.536 C 86.569 275.064 87.000 274.843 87.000 273.079 C 87.000 269.973 88.300 270.517 92.962 275.575 C 100.607 283.868 104.412 296.219 101.662 303.815 L 100.824 306.131 105.046 303.976 C 112.503 300.172 114.000 297.967 113.997 290.795 L 113.993 284.500 101.247 277.340 C 94.236 273.402 86.925 269.862 85.000 269.473 C 80.518 268.566 79.489 267.934 80.991 267.006 C 81.736 266.545 77.383 263.509 69.566 259.038 C 62.620 255.064 56.388 251.703 55.718 251.567 C 47.545 249.915 46.890 249.686 48.143 248.912 C 49.992 247.769 49.297 247.237 35.899 239.546 C 26.752 234.295 23.157 232.771 18.899 232.340 C 13.977 231.842 13.279 232.031 11.000 234.480 "/></g>
<g fill="#425056FE">
<path d="M 368.000 422.795 C 368.000 430.683 368.028 430.769 370.973 431.989 C 372.608 432.666 375.170 434.355 376.667 435.742 C 378.164 437.129 380.763 438.839 382.444 439.541 C 384.125 440.244 390.900 443.919 397.500 447.709 C 414.395 457.410 413.001 457.365 412.995 448.219 L 412.991 440.500 391.368 428.000 C 379.476 421.125 369.353 415.350 368.873 415.167 C 368.393 414.983 368.000 418.416 368.000 422.795 "/></g>
<g fill="#1088FEFE">
<path d="M 459.629 335.340 L 438.759 347.500 470.379 341.546 C 487.771 338.271 502.000 335.320 502.000 334.988 C 502.000 334.191 482.588 322.974 481.411 323.090 C 480.910 323.139 471.108 328.652 459.629 335.340 "/></g>
<g fill="#060606FE">
<path d="M 162.584 321.325 C 157.179 326.730 160.218 341.577 168.646 350.952 C 171.143 353.728 173.594 356.000 174.093 356.000 C 176.195 356.000 174.723 352.423 170.924 348.301 C 165.953 342.909 164.000 338.481 164.000 332.604 C 164.000 326.786 166.018 324.696 171.161 325.187 C 174.689 325.523 175.003 325.348 175.036 323.026 C 175.070 320.707 175.512 320.966 180.445 326.199 C 189.287 335.578 192.769 349.210 187.903 355.397 L 185.805 358.063 191.153 354.950 C 199.037 350.360 201.140 347.935 201.723 342.764 C 202.000 340.305 201.751 337.403 201.169 336.316 C 200.587 335.229 194.473 331.093 187.581 327.125 C 172.432 318.404 166.810 317.099 162.584 321.325 "/></g>
<g fill="#425056FE">
<path d="M 315.209 403.343 C 313.050 404.541 313.940 405.199 330.642 414.744 C 345.402 423.180 348.712 424.708 350.433 423.882 C 352.331 422.971 352.357 423.005 350.750 424.305 C 349.788 425.084 349.000 426.882 349.000 428.301 C 349.000 429.721 348.480 431.203 347.845 431.595 C 347.191 432.000 346.960 431.873 347.313 431.302 C 347.657 430.746 340.076 425.794 330.342 420.218 C 315.314 411.610 312.475 410.311 310.874 411.311 C 309.843 411.954 309.007 412.710 309.015 412.991 C 309.024 413.271 316.709 417.922 326.094 423.327 C 337.200 429.723 343.740 432.932 344.828 432.518 C 346.168 432.008 346.252 432.131 345.250 433.141 C 343.965 434.435 343.508 438.000 344.626 438.000 C 344.971 438.000 349.030 435.684 353.647 432.852 L 362.041 427.705 356.770 424.437 C 348.662 419.409 318.502 401.996 317.971 402.035 C 317.712 402.055 316.469 402.643 315.209 403.343 "/></g>
<g fill="#060606FE">
<path d="M 206.923 346.923 C 204.361 349.485 204.000 350.566 204.001 355.673 C 204.002 363.074 208.066 372.066 214.169 378.169 C 218.203 382.203 218.522 382.345 218.820 380.245 C 219.039 378.703 218.153 377.158 216.021 375.364 C 211.498 371.559 208.000 364.067 208.000 358.188 C 208.000 351.951 210.333 349.468 215.417 350.293 C 218.414 350.779 218.927 350.562 219.232 348.677 C 219.553 346.691 219.965 346.889 223.936 350.943 C 230.118 357.256 233.508 364.968 233.410 372.500 C 233.368 375.800 233.145 379.288 232.916 380.252 C 232.582 381.658 233.586 381.360 238.000 378.745 C 244.318 375.001 246.810 370.130 245.629 363.834 C 245.007 360.522 244.108 359.771 233.284 353.524 C 222.754 347.448 214.836 344.041 211.173 344.011 C 210.443 344.005 208.531 345.315 206.923 346.923 "/></g>
<g fill="#084E76FE">
<path d="M 417.030 420.750 C 417.014 430.238 417.338 437.994 417.750 437.987 C 418.163 437.980 422.550 435.606 427.500 432.711 L 436.500 427.447 436.786 417.130 L 437.072 406.813 434.132 408.906 C 432.514 410.058 430.230 411.000 429.056 411.000 C 426.171 411.000 419.349 407.429 418.084 405.257 C 417.357 404.009 417.052 408.498 417.030 420.750 "/></g>
<g fill="#084E76FE">
<path d="M 486.000 382.871 L 486.000 398.913 495.250 393.568 L 504.500 388.224 504.785 377.494 L 505.070 366.763 501.958 369.382 C 498.074 372.650 496.424 372.655 490.626 369.415 L 486.000 366.829 486.000 382.871 "/></g>
<g fill="#96AAA8FE">
<path d="M 165.875 327.125 C 161.423 331.577 166.037 345.235 173.767 350.488 C 178.011 353.372 181.177 353.680 183.427 351.430 C 190.195 344.662 180.244 325.000 170.050 325.000 C 168.922 325.000 167.044 325.956 165.875 327.125 "/></g>
<g fill="#96AAA8FE">
<path d="M 375.035 446.934 C 371.746 453.081 375.558 464.134 382.904 469.750 C 387.815 473.504 390.200 473.800 393.000 471.000 C 397.561 466.439 393.396 452.205 386.054 447.257 C 381.838 444.416 376.467 444.259 375.035 446.934 "/></g>
<g fill="#96AAA8FE">
<path d="M 209.557 353.223 C 208.701 354.445 208.004 356.807 208.010 358.473 C 208.023 362.716 212.125 370.906 216.128 374.681 C 220.628 378.926 223.946 379.674 227.063 377.149 C 232.104 373.064 229.165 360.864 221.524 354.155 C 217.060 350.236 211.929 349.836 209.557 353.223 "/></g>
<g fill="#96AAA8FE">
<path d="M 78.571 276.571 C 74.332 280.811 78.778 294.653 86.076 299.940 C 91.009 303.514 93.247 303.753 96.000 301.000 C 99.138 297.862 98.692 290.739 94.947 284.209 C 90.352 276.196 82.574 272.569 78.571 276.571 "/></g>
<g fill="#96AAA8FE">
<path d="M 14.674 239.469 C 12.322 241.821 12.514 249.364 15.058 254.621 C 17.675 260.027 24.208 266.000 27.503 266.000 C 36.479 266.000 35.965 251.173 26.676 242.171 C 22.608 238.228 17.145 236.998 14.674 239.469 "/></g>
<g fill="#96AAA8FE">
<path d="M 47.223 257.557 C 45.489 258.771 45.000 260.098 45.000 263.589 C 45.000 273.377 52.840 283.975 60.095 283.993 C 70.907 284.021 65.562 261.567 53.685 257.067 C 50.060 255.693 49.862 255.708 47.223 257.557 "/></g>
<g fill="#060606FE">
<path d="M 390.365 445.950 C 395.864 452.083 399.306 460.121 399.400 467.053 C 399.446 470.469 398.936 473.372 398.116 474.360 C 396.098 476.792 397.567 476.371 403.519 472.811 C 409.616 469.164 411.005 466.820 410.988 460.203 C 410.976 455.523 410.948 455.484 405.238 452.282 C 402.082 450.512 396.575 447.394 393.000 445.352 L 386.500 441.640 390.365 445.950 "/></g>
<g fill="#0466DAFE">
<path d="M 363.500 354.144 C 361.850 355.243 359.375 356.564 358.000 357.079 C 355.514 358.012 355.502 358.077 355.812 369.013 L 356.125 380.009 362.051 376.755 L 367.976 373.500 367.988 362.750 C 367.995 356.838 367.663 352.033 367.250 352.073 C 366.838 352.113 365.150 353.045 363.500 354.144 "/></g>
<g fill="#425056FE">
<path d="M 383.826 443.180 C 383.590 444.827 384.280 445.996 386.203 447.209 C 387.693 448.148 390.278 451.298 391.947 454.209 C 397.689 464.222 395.263 474.022 387.406 472.548 C 384.449 471.994 384.000 472.174 384.000 473.920 C 384.000 476.435 386.823 478.000 391.362 478.000 C 401.319 478.000 401.822 461.158 392.239 448.599 C 390.183 445.904 387.523 443.060 386.329 442.279 C 384.328 440.972 384.131 441.043 383.826 443.180 "/></g>
<g fill="#425056FE">
<path d="M 218.752 349.517 C 218.491 350.882 218.604 352.000 219.002 352.000 C 220.649 352.000 225.443 357.832 227.634 362.500 C 230.744 369.126 230.695 373.396 227.472 376.619 C 225.458 378.633 224.340 379.014 221.972 378.494 C 219.301 377.907 219.000 378.092 219.000 380.314 C 219.000 383.099 220.608 384.000 225.582 384.000 C 232.262 384.000 235.279 377.293 233.059 367.375 C 231.764 361.586 226.155 352.423 221.863 349.084 L 219.227 347.033 218.752 349.517 "/></g>
<g fill="#425056FE">
<path d="M 175.000 324.106 C 175.000 325.264 176.125 327.097 177.501 328.179 C 181.926 331.660 185.396 338.794 185.451 344.524 C 185.479 347.499 184.918 350.390 184.128 351.344 C 182.580 353.211 176.970 353.570 175.307 351.907 C 174.517 351.117 174.403 351.740 174.894 354.157 C 175.463 356.962 176.160 357.646 179.218 358.410 C 183.587 359.500 187.484 357.453 189.138 353.198 C 191.714 346.572 187.683 334.083 180.349 325.964 C 176.314 321.498 175.000 321.042 175.000 324.106 "/></g>
<g fill="#425056FE">
<path d="M 23.000 236.289 C 23.000 237.703 24.137 239.465 25.882 240.755 C 32.359 245.543 36.032 258.654 32.364 263.891 C 30.991 265.851 30.107 266.144 26.864 265.709 C 23.630 265.275 23.000 265.481 23.000 266.973 C 23.000 270.519 28.628 272.811 32.944 271.023 C 36.525 269.540 38.002 266.226 37.990 259.703 C 37.975 251.781 31.659 239.628 25.438 235.551 C 23.094 234.015 23.000 234.044 23.000 236.289 "/></g>
<g fill="#425056FE">
<path d="M 55.835 255.130 C 55.599 256.797 56.444 258.329 58.682 260.294 C 62.950 264.041 66.003 270.636 65.985 276.066 C 65.967 281.101 65.435 282.208 62.213 283.905 C 60.358 284.883 59.321 284.808 56.717 283.509 C 54.913 282.609 54.053 282.453 54.754 283.154 C 55.439 283.839 56.000 285.415 56.000 286.655 C 56.000 288.429 56.727 289.046 59.413 289.550 C 66.777 290.931 70.483 287.073 70.276 278.238 C 70.115 271.370 65.779 262.125 60.141 256.630 C 56.282 252.870 56.161 252.827 55.835 255.130 "/></g>
<g fill="#425056FE">
<path d="M 88.000 273.629 C 88.000 274.525 89.619 277.049 91.597 279.239 C 96.051 284.169 98.167 289.081 98.252 294.687 C 98.353 301.383 94.143 304.752 89.068 302.036 C 87.462 301.177 87.337 301.413 87.912 304.222 C 88.667 307.915 92.429 309.444 96.913 307.881 C 105.565 304.864 103.688 287.409 93.498 276.130 C 89.504 271.709 88.000 271.025 88.000 273.629 "/></g>
<g fill="#060606FE">
<path d="M 373.831 439.530 C 370.454 441.363 368.573 446.868 369.360 452.612 C 370.185 458.631 375.020 467.722 379.912 472.453 C 383.632 476.050 384.000 476.205 384.000 474.170 C 384.000 472.940 382.509 470.442 380.687 468.620 C 376.640 464.574 373.857 458.926 373.256 453.540 C 372.613 447.777 375.943 443.567 380.554 444.315 C 383.348 444.768 383.858 444.521 384.239 442.531 C 384.610 440.588 384.091 440.044 380.974 439.110 C 376.539 437.781 377.112 437.748 373.831 439.530 "/></g>
<g fill="#96AAA8FE">
<path d="M 495.593 346.849 C 495.304 347.316 496.151 348.278 497.474 348.986 L 499.880 350.274 496.973 353.181 C 494.141 356.013 493.997 356.044 491.481 354.396 C 488.450 352.410 487.576 353.056 486.150 358.335 C 484.724 363.614 485.982 366.213 491.535 369.468 C 495.447 371.760 496.624 372.037 498.614 371.130 C 501.784 369.686 501.717 367.782 498.525 368.583 C 496.535 369.083 495.825 368.709 494.898 366.676 C 494.265 365.285 494.018 363.064 494.351 361.739 C 495.167 358.485 502.132 350.010 504.000 349.997 C 504.839 349.991 504.177 349.111 502.500 348.000 C 499.338 345.906 496.471 345.428 495.593 346.849 "/></g>
<g fill="#060606FE">
<path d="M 313.000 407.302 C 313.000 409.383 315.448 411.140 330.503 419.861 C 340.130 425.437 348.230 430.000 348.503 430.000 C 348.776 430.000 349.000 428.954 349.000 427.675 C 349.000 425.711 346.317 423.819 331.750 415.510 C 322.263 410.099 314.163 405.494 313.750 405.277 C 313.338 405.060 313.000 405.971 313.000 407.302 "/></g>
<g fill="#96AAA8FE">
<path d="M 427.537 385.730 C 425.841 386.161 426.014 386.456 428.812 387.903 L 432.050 389.577 429.135 392.371 C 426.334 395.054 426.102 395.104 423.249 393.629 C 420.384 392.147 420.239 392.181 419.139 394.593 C 417.403 398.404 417.721 404.450 419.750 406.197 C 423.663 409.568 427.764 411.276 430.373 410.621 C 433.680 409.791 433.974 407.091 430.689 407.719 C 425.165 408.775 424.667 400.179 429.948 394.898 C 431.488 393.358 433.016 391.401 433.343 390.549 C 433.670 389.697 434.739 388.981 435.719 388.958 C 436.867 388.931 436.257 388.236 434.000 387.000 C 432.075 385.946 430.275 385.117 430.000 385.158 C 429.725 385.199 428.617 385.456 427.537 385.730 "/></g>
<g fill="#060606FE">
<path d="M 308.178 415.555 C 308.456 417.871 310.897 419.625 326.250 428.543 C 343.570 438.604 343.999 438.789 343.978 436.177 C 343.959 433.796 342.499 432.670 330.791 426.000 C 323.550 421.875 315.427 417.235 312.740 415.688 L 307.855 412.877 308.178 415.555 "/></g>
<g fill="#9ED8FEFE">
<path d="M 457.250 379.662 C 456.313 380.040 456.000 384.787 456.000 398.592 C 456.000 416.767 456.027 417.000 458.000 415.768 C 459.878 414.595 460.000 413.436 460.000 396.759 C 460.000 386.992 459.663 379.036 459.250 379.079 C 458.838 379.122 457.938 379.385 457.250 379.662 M 458.034 414.366 C 456.778 415.622 456.696 411.110 457.756 399.000 L 458.500 390.500 458.784 401.916 C 458.957 408.835 458.661 413.739 458.034 414.366 "/></g>
<g fill="#9ED8FEFE">
<path d="M 474.200 370.200 C 473.356 371.044 473.000 376.697 473.000 389.235 C 473.000 406.760 473.035 407.052 475.000 406.000 C 476.886 404.991 477.000 403.906 477.000 386.965 C 477.000 377.084 476.640 369.000 476.200 369.000 C 475.760 369.000 474.860 369.540 474.200 370.200 M 475.033 404.367 C 473.776 405.624 473.663 398.852 474.750 387.401 L 475.500 379.500 475.783 391.417 C 475.956 398.671 475.662 403.738 475.033 404.367 "/></g>
<g fill="#F6BC14FE">
<path d="M 499.369 354.443 C 496.294 356.612 493.693 363.559 495.025 366.046 C 496.488 368.780 499.652 368.479 502.572 365.328 C 508.693 358.724 506.047 349.733 499.369 354.443 "/></g>
<g fill="#F6BC14FE">
<path d="M 431.084 394.583 C 424.648 399.999 425.531 410.462 432.126 406.933 C 436.909 404.373 440.020 393.989 436.418 392.607 C 434.268 391.782 434.526 391.687 431.084 394.583 "/></g>
<g fill="#425056FE">
<path d="M 461.590 390.750 C 461.908 399.963 462.417 408.175 462.722 409.000 C 463.931 412.276 464.804 405.046 464.900 390.950 C 464.996 376.980 464.452 374.000 461.806 374.000 C 461.370 374.000 461.273 381.538 461.590 390.750 "/></g>
<g fill="#425056FE">
<path d="M 444.803 400.750 C 445.121 418.363 445.305 420.000 446.969 420.000 C 447.638 420.000 448.000 413.889 448.000 402.607 C 448.000 387.669 447.777 385.128 446.418 384.607 C 445.548 384.273 444.761 384.000 444.668 384.000 C 444.576 384.000 444.636 391.537 444.803 400.750 "/></g>
<g fill="#060606FE">
<path d="M 492.000 412.017 C 488.202 414.456 487.387 415.560 486.778 419.093 C 486.381 421.396 485.309 424.106 484.395 425.116 C 483.266 426.363 484.532 425.978 488.343 423.914 C 491.429 422.243 494.864 419.718 495.976 418.303 C 497.897 415.861 498.853 408.927 497.250 409.064 C 496.838 409.099 494.475 410.428 492.000 412.017 "/></g>
<g fill="#425056FE">
<path d="M 470.000 386.409 C 470.000 400.608 470.272 403.981 471.500 405.000 C 472.824 406.099 473.000 404.130 473.000 388.229 C 473.000 373.138 472.757 370.121 471.500 369.638 C 470.202 369.140 470.000 371.401 470.000 386.409 "/></g>
<g fill="#425056FE">
<path d="M 453.227 396.690 C 453.429 409.718 453.827 414.444 454.750 414.751 C 455.718 415.073 456.000 411.226 456.000 397.690 C 456.000 382.961 455.761 380.122 454.477 379.630 C 453.142 379.117 452.988 381.227 453.227 396.690 "/></g>
<g fill="#425056FE">
<path d="M 478.227 381.690 C 478.429 394.718 478.827 399.444 479.750 399.751 C 480.718 400.073 481.000 396.226 481.000 382.690 C 481.000 367.961 480.761 365.122 479.477 364.630 C 478.142 364.117 477.988 366.227 478.227 381.690 "/></g>
<g fill="#425056FE">
<path d="M 484.799 415.939 C 483.325 416.767 481.652 418.469 481.081 419.722 C 480.103 421.868 479.422 422.146 474.519 422.398 C 472.183 422.518 471.208 425.883 473.152 427.115 C 473.893 427.585 476.155 427.976 478.177 427.985 C 482.661 428.003 485.306 425.106 486.598 418.763 L 487.480 414.435 484.799 415.939 "/></g>
<g fill="#9ED8FEFE">
<path d="M 483.250 364.765 C 481.061 366.204 481.000 366.711 481.000 383.455 C 481.000 392.922 481.284 400.951 481.631 401.298 C 481.979 401.645 483.216 401.229 484.381 400.372 L 486.500 398.815 484.250 399.475 C 482.234 400.066 482.002 399.790 482.020 396.817 C 482.041 393.258 484.718 365.916 485.206 364.274 C 485.368 363.731 484.488 363.952 483.250 364.765 "/></g>
<g fill="#064CB2FE">
<path d="M 468.000 391.941 C 468.000 405.257 468.246 408.000 469.441 408.000 C 471.303 408.000 472.718 405.739 471.177 405.226 C 470.350 404.950 470.000 400.715 470.000 390.976 C 470.000 382.816 469.589 376.864 469.000 376.500 C 468.349 376.098 468.000 381.490 468.000 391.941 "/></g>
<g fill="#96AAA8FE">
<path d="M 483.127 383.794 C 482.372 392.206 482.042 399.376 482.394 399.727 C 484.368 401.702 485.033 397.154 484.778 383.422 L 484.500 368.500 483.127 383.794 "/></g>
<g fill="#9ED8FEFE">
<path d="M 433.713 389.621 C 432.398 390.936 432.983 392.000 435.021 392.000 C 436.190 392.000 437.509 393.022 438.147 394.424 C 439.047 396.399 438.841 397.697 437.037 401.424 C 435.818 403.941 434.412 406.000 433.911 406.000 C 433.410 406.000 433.013 406.788 433.029 407.750 C 433.052 409.095 433.733 408.759 435.976 406.294 C 441.894 399.790 442.457 389.852 436.944 389.204 C 435.559 389.041 434.104 389.229 433.713 389.621 "/></g>
<g fill="#96AAA8FE">
<path d="M 466.193 394.359 C 465.473 402.532 465.143 409.477 465.459 409.793 C 467.353 411.686 468.032 407.041 467.779 393.921 L 467.500 379.500 466.193 394.359 "/></g>
<g fill="#9ED8FEFE">
<path d="M 422.655 388.829 C 420.357 391.368 420.577 392.486 423.648 393.885 C 426.017 394.965 426.596 394.803 429.166 392.341 L 432.037 389.590 429.769 388.331 C 426.589 386.565 424.576 386.706 422.655 388.829 "/></g>
<g fill="#9ED8FEFE">
<path d="M 490.732 349.758 L 488.090 352.515 491.124 354.256 C 494.128 355.980 494.184 355.970 496.991 353.163 L 499.826 350.328 497.009 348.664 C 493.464 346.571 493.850 346.503 490.732 349.758 "/></g>
<g fill="#9ED8FEFE">
<path d="M 449.250 384.739 C 448.320 385.057 448.034 388.798 448.132 399.333 L 448.264 413.500 449.640 400.500 C 451.154 386.198 451.103 384.105 449.250 384.739 "/></g>
<g fill="#9ED8FEFE">
<path d="M 501.713 350.621 C 500.428 351.905 500.964 353.000 502.878 353.000 C 507.625 353.000 507.972 359.502 503.509 364.807 C 502.232 366.325 501.033 368.405 500.844 369.430 C 500.250 372.651 505.631 365.534 507.510 360.613 C 509.665 354.969 508.576 350.648 504.885 350.204 C 503.532 350.041 502.104 350.229 501.713 350.621 "/></g>
<g fill="#96AAA8FE">
<path d="M 449.727 400.500 C 449.302 405.450 448.676 411.873 448.337 414.772 C 447.792 419.424 447.916 419.970 449.387 419.405 C 450.851 418.843 451.021 417.097 450.777 405.132 L 450.500 391.500 449.727 400.500 "/></g>
<g fill="#9ED8FEFE">
<path d="M 466.000 374.707 C 464.726 374.995 464.575 377.112 465.000 388.773 L 465.500 402.500 466.736 388.570 C 467.416 380.908 467.866 374.578 467.736 374.504 C 467.606 374.429 466.825 374.521 466.000 374.707 "/></g>
<g fill="#96AAA8FE">
<path d="M 474.750 387.401 C 473.663 398.852 473.776 405.624 475.033 404.367 C 475.662 403.738 475.956 398.671 475.783 391.417 L 475.500 379.500 474.750 387.401 "/></g>
<g fill="#96AAA8FE">
<path d="M 457.756 399.000 C 456.696 411.110 456.778 415.622 458.034 414.366 C 458.661 413.739 458.957 408.835 458.784 401.916 L 458.500 390.500 457.756 399.000 "/></g>
<g fill="#0466DAFE">
<path d="M 473.379 294.802 L 471.258 296.500 473.596 301.500 L 475.933 306.500 475.717 299.802 C 475.500 293.119 475.495 293.108 473.379 294.802 "/></g>
<g fill="#96AAA8FE">
<path d="M 298.750 372.579 C 297.574 373.762 297.842 389.000 299.039 389.000 C 299.699 389.000 299.973 385.871 299.789 380.412 C 299.630 375.688 299.163 372.163 298.750 372.579 "/></g>
<g fill="#064CB2FE">
<path d="M 452.441 406.216 C 452.491 416.133 452.720 417.795 453.936 417.042 C 455.033 416.362 455.102 415.827 454.226 414.772 C 453.596 414.013 452.923 409.141 452.731 403.946 C 452.433 395.913 452.390 396.253 452.441 406.216 "/></g>
<g fill="#6CBCFEFE">
<path d="M 461.191 396.691 C 461.086 403.396 461.338 409.092 461.750 409.348 C 462.163 409.605 462.249 404.119 461.941 397.157 L 461.382 384.500 461.191 396.691 "/></g>
<g fill="#9ED8FEFE">
<path d="M 327.008 354.250 C 327.013 354.938 328.885 356.515 331.170 357.755 C 335.530 360.123 337.929 359.866 334.498 357.399 C 333.399 356.609 331.793 355.408 330.929 354.731 C 328.712 352.994 326.999 352.783 327.008 354.250 "/></g>
<g fill="#D6E8EAFE">
<path d="M 328.000 351.816 C 328.000 352.996 335.583 357.083 336.350 356.317 C 336.705 355.962 335.309 354.634 333.248 353.367 C 329.219 350.890 328.000 350.529 328.000 351.816 "/></g>
<g fill="#1088FEFE">
<path d="M 469.000 290.566 C 469.000 290.877 469.469 292.008 470.042 293.078 C 470.896 294.674 471.452 294.829 473.125 293.933 C 475.089 292.882 475.097 292.789 473.333 291.452 C 471.471 290.042 469.000 289.536 469.000 290.566 "/></g>
<g fill="#96AAA8FE">
<path d="M 479.909 363.093 C 478.697 363.873 478.697 364.127 479.909 364.907 C 481.415 365.877 484.000 365.303 484.000 364.000 C 484.000 362.697 481.415 362.123 479.909 363.093 "/></g>
<g fill="#96AAA8FE">
<path d="M 446.118 382.906 C 445.031 383.594 445.190 383.926 446.859 384.455 C 449.540 385.306 451.804 384.124 449.857 382.890 C 448.166 381.819 447.832 381.820 446.118 382.906 "/></g>
<g fill="#96AAA8FE">
<path d="M 463.244 372.669 C 461.440 373.389 462.752 375.000 465.142 375.000 C 466.261 375.000 466.989 374.468 466.771 373.813 C 466.301 372.404 464.979 371.975 463.244 372.669 "/></g>
<g fill="#96AAA8FE">
<path d="M 471.954 368.065 C 470.683 368.882 470.685 369.119 471.966 369.943 C 472.917 370.554 473.906 370.493 474.780 369.768 C 475.908 368.832 475.906 368.527 474.768 367.890 C 474.020 367.472 472.754 367.550 471.954 368.065 "/></g>
<g fill="#96AAA8FE">
<path d="M 454.496 378.007 C 453.711 379.276 456.511 380.420 458.059 379.464 C 458.901 378.943 458.847 378.518 457.857 377.890 C 456.069 376.758 455.250 376.786 454.496 378.007 "/></g>
<g fill="#084E76FE">
<path d="M 468.939 372.311 C 468.635 374.407 468.778 376.363 469.256 376.658 C 469.734 376.953 469.982 375.239 469.807 372.847 L 469.490 368.500 468.939 372.311 "/></g>
<g fill="#9ED8FEFE">
<path d="M 464.371 408.655 C 464.547 411.724 464.620 411.771 467.026 410.363 C 469.198 409.093 469.234 408.988 467.325 409.502 C 465.626 409.959 465.045 409.585 464.670 407.794 C 464.368 406.349 464.257 406.668 464.371 408.655 "/></g>
<g fill="#0C2C48FE">
<path d="M 88.250 270.758 C 87.563 270.983 87.036 272.367 87.079 273.833 C 87.122 275.300 87.377 275.825 87.645 275.000 C 87.913 274.175 88.440 272.791 88.816 271.925 C 89.260 270.902 89.062 270.493 88.250 270.758 "/></g>
<g fill="#96AAA8FE">
<path d="M 336.274 356.831 C 335.531 357.290 335.431 358.079 335.999 358.998 C 336.750 360.213 337.001 360.162 337.570 358.679 C 338.380 356.566 337.873 355.843 336.274 356.831 "/></g>
</svg>
